<?xml version="1.0" encoding="UTF-8" standalone="no"?>
<!-- Created with Inkscape (http://www.inkscape.org/) -->

<svg
   xmlns:dc="http://purl.org/dc/elements/1.1/"
   xmlns:cc="http://creativecommons.org/ns#"
   xmlns:rdf="http://www.w3.org/1999/02/22-rdf-syntax-ns#"
   xmlns:svg="http://www.w3.org/2000/svg"
   xmlns="http://www.w3.org/2000/svg"
   xmlns:xlink="http://www.w3.org/1999/xlink"
   xmlns:sodipodi="http://sodipodi.sourceforge.net/DTD/sodipodi-0.dtd"
   xmlns:inkscape="http://www.inkscape.org/namespaces/inkscape"
   width="426"
   height="53"
   id="svg3079"
   version="1.1"
   inkscape:version="0.48.4 r9939"
   sodipodi:docname="wordmark.svg"
   inkscape:export-filename="/home/stuart/Projects/web/opensets/wordmark.png"
   inkscape:export-xdpi="90"
   inkscape:export-ydpi="90">
  <defs
     id="defs3081" />
  <sodipodi:namedview
     id="base"
     pagecolor="#ffffff"
     bordercolor="#666666"
     borderopacity="1.0"
     inkscape:pageopacity="0.0"
     inkscape:pageshadow="2"
     inkscape:zoom="0.5"
     inkscape:cx="-138.1245"
     inkscape:cy="-0.91017763"
     inkscape:document-units="px"
     inkscape:current-layer="layer1"
     showgrid="false"
     inkscape:window-width="1366"
     inkscape:window-height="680"
     inkscape:window-x="0"
     inkscape:window-y="31"
     inkscape:window-maximized="1"
     inkscape:snap-bbox="true"
     fit-margin-top="0"
     fit-margin-left="0"
     fit-margin-right="0"
     fit-margin-bottom="0">
    <inkscape:grid
       type="xygrid"
       id="grid3133"
       empspacing="5"
       visible="true"
       enabled="true"
       snapvisiblegridlinesonly="true"
       originx="-295px"
       originy="-387px" />
  </sodipodi:namedview>
  <metadata
     id="metadata3084">
    <rdf:RDF>
      <cc:Work
         rdf:about="">
        <dc:format>image/svg+xml</dc:format>
        <dc:type
           rdf:resource="http://purl.org/dc/dcmitype/StillImage" />
        <dc:title />
      </cc:Work>
    </rdf:RDF>
  </metadata>
  <g
     inkscape:label="Layer 1"
     inkscape:groupmode="layer"
     id="layer1"
     transform="translate(-295,-612.36218)">
    <path
       style="fill:#000000;fill-opacity:1;stroke:none"
       d="M 8 5 C 3.568 5 0 8.568 0 13 L 0 29 C 0 33.432 3.568 37 8 37 L 24 37 C 28.432 37 32 33.432 32 29 L 32 13 C 32 8.568 28.432 5 24 5 L 8 5 z M 10 15 L 22 15 L 22 27 L 10 27 L 10 15 z "
       transform="translate(295,612.36218)"
       id="rect2998" />
    <path
       style="fill:#000000;fill-opacity:1;stroke:none"
       d="M 38 5 L 38 53 L 48 53 L 48 35.25 C 49.368751 36.346457 51.101899 37 53 37 L 64 37 C 68.432 37 72 33.432 72 29 L 72 13 C 72 8.568 68.432 5 64 5 L 53 5 C 51.101899 5 49.368751 5.6535433 48 6.75 L 48 5 L 38 5 z M 50 15 L 62 15 L 62 27 L 50 27 L 50 15 z "
       transform="translate(295,612.36218)"
       id="rect3002" />
    <path
       style="fill:#000000;fill-opacity:1;stroke:none"
       d="M 86 5 C 81.568 5 78 8.568 78 13 L 78 29 C 78 33.432 81.568 37 86 37 L 102 37 C 106.432 37 110 33.432 110 29 L 110 27 L 100 27 L 100 29 L 88 29 L 88 27 L 88 24 L 110 24 L 110 13 C 110 8.568 106.432 5 102 5 L 86 5 z M 88 13 L 100 13 L 100 18 L 88 18 L 88 13 z "
       transform="translate(295,612.36218)"
       id="rect3012" />
    <path
       style="fill:#000000;fill-opacity:1;stroke:none"
       d="M 116 5 L 116 37 L 126 37 L 126 35.25 L 126 15 L 138 15 L 138 37 L 140 37 C 144.432 37 148 33.432 148 29 L 148 13 C 148 8.568 144.432 5 140 5 L 131 5 C 129.1019 5 127.36875 5.6535433 126 6.75 L 126 5 L 116 5 z "
       transform="translate(295,612.36218)"
       id="rect3137" />
    <rect
       y="627.36218"
       x="433"
       height="22"
       width="10"
       id="rect3143"
       style="fill:#000000;fill-opacity:1;stroke:none" />
    <path
       style="fill:#000000;fill-opacity:1;stroke:none"
       d="M 162 5 C 157.568 5 154 8.568 154 13 L 154 16 C 154 20.432 157.568 24 162 24 L 174 24 L 176 24 L 176 29 L 164 29 L 164 27 L 154 27 L 154 29 C 154 33.432 157.568 37 162 37 L 178 37 C 182.432 37 186 33.432 186 29 L 186 26 C 186 21.568 182.432 18 178 18 L 176 18 L 164 18 L 164 15 L 164 13 L 176 13 L 176 15 L 186 15 L 186 13 C 186 8.568 182.432 5 178 5 L 162 5 z "
       transform="translate(295,612.36218)"
       id="rect3145" />
    <use
       x="0"
       y="0"
       xlink:href="#rect3012"
       id="use3161"
       transform="translate(114,1.9531262e-7)"
       width="1052.3622"
       height="744.09448" />
    <path
       style="fill:#000000;fill-opacity:1;stroke:none"
       d="M 236 0 L 236 5 L 230 5 L 230 13 L 236 13 L 236 14 L 236 29 C 236 33.432 239.568 37 244 37 L 250 37 C 254.432 37 258 33.432 258 29 L 258 27 L 250 27 L 250 29 L 246 29 L 246 27 L 246 17 L 246 14 L 246 13 L 258 13 L 258 5 L 250 5 L 246 5 L 246 0 L 236 0 z "
       transform="translate(295,612.36218)"
       id="rect3169" />
    <rect
       style="fill:#000000;fill-opacity:1;stroke:none"
       id="rect3193"
       width="10"
       height="10"
       x="597"
       y="639.36218" />
    <use
       x="0"
       y="0"
       xlink:href="#rect2998"
       id="use3195"
       transform="translate(318,1.9531262e-7)"
       width="1052.3622"
       height="744.09448" />
    <path
       style="fill:#000000;fill-opacity:1;stroke:none"
       d="M 402 5 C 397.568 5 394 8.568 394 13 L 394 23 L 394 27 L 394 29 C 394 33.432 397.568 37 402 37 L 413 37 C 414.05994 37 415.07588 36.808658 416 36.4375 L 416 38 L 416 41 L 416 43 L 404 43 L 404 41 L 394 41 L 394 45 C 394 49.432 397.568 53 402 53 L 418 53 C 422.432 53 426 49.432 426 45 L 426 23 L 426 5 L 418 5 L 418 6.75 C 416.63125 5.6535433 414.8981 5 413 5 L 402 5 z M 404 15 L 416 15 L 416 27 L 404 27 L 404 15 z "
       transform="translate(295,612.36218)"
       id="rect3207" />
    <path
       style="fill:#000000;fill-opacity:1;stroke:none"
       d="M 355 5 L 355 37 L 367 37 L 367 35.25 L 367 15 L 377 15 L 377 17 L 389 17 L 389 15 L 389 14 L 389 13 C 389 8.568 385.432 5 381 5 L 372 5 C 370.1019 5 368.36875 5.6535433 367 6.75 L 367 5 L 355 5 z "
       transform="translate(295,612.36218)"
       id="rect3215" />
    <use
       x="0"
       y="0"
       xlink:href="#rect3145"
       id="use3097"
       transform="translate(110,-2.6171875e-6)"
       width="426"
       height="53" />
  </g>
</svg>
