<?xml version="1.0" encoding="UTF-8" standalone="no"?>
<!-- Created with Inkscape (http://www.inkscape.org/) -->

<svg
   xmlns:dc="http://purl.org/dc/elements/1.1/"
   xmlns:cc="http://creativecommons.org/ns#"
   xmlns:rdf="http://www.w3.org/1999/02/22-rdf-syntax-ns#"
   xmlns:svg="http://www.w3.org/2000/svg"
   xmlns="http://www.w3.org/2000/svg"
   xmlns:sodipodi="http://sodipodi.sourceforge.net/DTD/sodipodi-0.dtd"
   xmlns:inkscape="http://www.inkscape.org/namespaces/inkscape"
   width="16"
   height="16"
   id="svg3008"
   version="1.1"
   inkscape:version="0.48.4 r9939"
   sodipodi:docname="logo2.svg">
  <defs
     id="defs3010" />
  <sodipodi:namedview
     id="base"
     pagecolor="#ffffff"
     bordercolor="#666666"
     borderopacity="1.0"
     inkscape:pageopacity="0.0"
     inkscape:pageshadow="2"
     inkscape:zoom="24.21875"
     inkscape:cx="15.332625"
     inkscape:cy="7.4871463"
     inkscape:current-layer="layer1"
     showgrid="true"
     inkscape:grid-bbox="true"
     inkscape:document-units="px"
     inkscape:window-width="1366"
     inkscape:window-height="680"
     inkscape:window-x="0"
     inkscape:window-y="31"
     inkscape:window-maximized="1"
     inkscape:snap-bbox="true">
    <inkscape:grid
       type="xygrid"
       id="grid3016"
       empspacing="8"
       visible="true"
       enabled="true"
       snapvisiblegridlinesonly="true" />
  </sodipodi:namedview>
  <metadata
     id="metadata3013">
    <rdf:RDF>
      <cc:Work
         rdf:about="">
        <dc:format>image/svg+xml</dc:format>
        <dc:type
           rdf:resource="http://purl.org/dc/dcmitype/StillImage" />
        <dc:title></dc:title>
      </cc:Work>
    </rdf:RDF>
  </metadata>
  <g
     id="layer1"
     inkscape:label="Layer 1"
     inkscape:groupmode="layer"
     transform="translate(0,-16)">
    <rect
       style="fill:#000000"
       id="rect3030"
       width="2"
       height="9.9999952"
       x="0"
       y="19" />
    <path
       sodipodi:type="arc"
       style="fill:#000000"
       id="path3046"
       sodipodi:cx="6"
       sodipodi:cy="26"
       sodipodi:rx="6"
       sodipodi:ry="6"
       d="M 6.0000002,32 C 2.6862917,32 8.8790478e-8,29.313709 0,26 c 0,0 0,0 0,0 l 6,0 z"
       sodipodi:start="1.5707963"
       sodipodi:end="3.1415927"
       transform="matrix(0.5,0,0,0.50000072,0,15.999996)" />
    <path
       sodipodi:type="arc"
       style="fill:#ffffff"
       id="path3048"
       sodipodi:cx="6"
       sodipodi:cy="26"
       sodipodi:rx="2"
       sodipodi:ry="2"
       d="M 6.0000001,28 C 4.8954306,28 4,27.10457 4,26 c 0,0 0,0 0,0 l 2,0 z"
       sodipodi:start="1.5707963"
       sodipodi:end="3.1415927"
       transform="matrix(0.5,0,0,0.50000072,0,15.999996)" />
    <rect
       style="fill:#000000"
       id="rect3050"
       width="1"
       height="2.0000029"
       x="3"
       y="30.000015" />
    <path
       sodipodi:end="3.1415927"
       sodipodi:start="1.5707963"
       d="M 6.0000002,32 C 2.6862917,32 8.8790478e-8,29.313709 0,26 c 0,0 0,0 0,0 l 6,0 z"
       sodipodi:ry="6"
       sodipodi:rx="6"
       sodipodi:cy="26"
       sodipodi:cx="6"
       id="path3056"
       style="fill:#000000"
       sodipodi:type="arc"
       transform="matrix(0.5,0,0,-0.50000068,0,32.000018)" />
    <path
       sodipodi:end="3.1415927"
       sodipodi:start="1.5707963"
       d="M 6.0000001,28 C 4.8954306,28 4,27.10457 4,26 c 0,0 0,0 0,0 l 2,0 z"
       sodipodi:ry="2"
       sodipodi:rx="2"
       sodipodi:cy="26"
       sodipodi:cx="6"
       id="path3058"
       style="fill:#ffffff"
       sodipodi:type="arc"
       transform="matrix(0.5,0,0,-0.50000068,0,32.000018)" />
    <rect
       y="-17.999998"
       x="3"
       height="2.0000026"
       width="1"
       id="rect3060"
       style="fill:#000000"
       transform="scale(1,-1)" />
    <rect
       y="19"
       x="-16"
       height="9.9999952"
       width="2"
       id="rect3062"
       style="fill:#000000"
       transform="scale(-1,1)" />
    <path
       sodipodi:end="3.1415927"
       sodipodi:start="1.5707963"
       d="M 6.0000002,32 C 2.6862917,32 8.8790478e-8,29.313709 0,26 c 0,0 0,0 0,0 l 6,0 z"
       sodipodi:ry="6"
       sodipodi:rx="6"
       sodipodi:cy="26"
       sodipodi:cx="6"
       id="path3064"
       style="fill:#000000"
       sodipodi:type="arc"
       transform="matrix(-0.5,0,0,0.50000072,16,15.999996)" />
    <path
       sodipodi:end="3.1415927"
       sodipodi:start="1.5707963"
       d="M 6.0000001,28 C 4.8954306,28 4,27.10457 4,26 c 0,0 0,0 0,0 l 2,0 z"
       sodipodi:ry="2"
       sodipodi:rx="2"
       sodipodi:cy="26"
       sodipodi:cx="6"
       id="path3066"
       style="fill:#ffffff"
       sodipodi:type="arc"
       transform="matrix(-0.5,0,0,0.50000072,16,15.999996)" />
    <rect
       y="30.000015"
       x="-13"
       height="2.0000029"
       width="1"
       id="rect3068"
       style="fill:#000000"
       transform="scale(-1,1)" />
    <path
       transform="matrix(-0.5,0,0,-0.50000068,16,32.000018)"
       sodipodi:type="arc"
       style="fill:#000000"
       id="path3070"
       sodipodi:cx="6"
       sodipodi:cy="26"
       sodipodi:rx="6"
       sodipodi:ry="6"
       d="M 6.0000002,32 C 2.6862917,32 8.8790478e-8,29.313709 0,26 c 0,0 0,0 0,0 l 6,0 z"
       sodipodi:start="1.5707963"
       sodipodi:end="3.1415927" />
    <path
       transform="matrix(-0.5,0,0,-0.50000068,16,32.000018)"
       sodipodi:type="arc"
       style="fill:#ffffff"
       id="path3072"
       sodipodi:cx="6"
       sodipodi:cy="26"
       sodipodi:rx="2"
       sodipodi:ry="2"
       d="M 6.0000001,28 C 4.8954306,28 4,27.10457 4,26 c 0,0 0,0 0,0 l 2,0 z"
       sodipodi:start="1.5707963"
       sodipodi:end="3.1415927" />
    <rect
       transform="scale(-1,-1)"
       style="fill:#000000"
       id="rect3074"
       width="1"
       height="2.0000026"
       x="-13"
       y="-17.999998" />
    <rect
       transform="scale(-1,1)"
       style="fill:#000000"
       id="rect3076"
       width="2"
       height="1.0000014"
       x="-10"
       y="28.000013" />
    <path
       transform="matrix(-0.5,0,0,0.50000072,10,16.000015)"
       sodipodi:type="arc"
       style="fill:#000000"
       id="path3078"
       sodipodi:cx="6"
       sodipodi:cy="26"
       sodipodi:rx="6"
       sodipodi:ry="6"
       d="M 6.0000002,32 C 2.6862917,32 8.8790478e-8,29.313709 0,26 c 0,0 0,0 0,0 l 6,0 z"
       sodipodi:start="1.5707963"
       sodipodi:end="3.1415927" />
    <rect
       transform="scale(-1,1)"
       style="fill:#000000"
       id="rect3080"
       width="1"
       height="2.0000029"
       x="-7"
       y="30.000034" />
    <path
       transform="matrix(-0.5,0,0,0.50000072,10,15.999996)"
       sodipodi:type="arc"
       style="fill:#ffffff"
       id="path3082"
       sodipodi:cx="6"
       sodipodi:cy="26"
       sodipodi:rx="2"
       sodipodi:ry="2"
       d="M 6.0000001,28 C 4.8954306,28 4,27.10457 4,26 c 0,0 0,0 0,0 l 2,0 z"
       sodipodi:start="1.5707963"
       sodipodi:end="3.1415927" />
    <rect
       y="24.000008"
       x="6"
       height="4.0000057"
       width="4"
       id="rect3084"
       style="fill:#000000" />
  </g>
</svg>
