<?xml version="1.0" encoding="UTF-8" standalone="no"?>
<!-- Created with Inkscape (http://www.inkscape.org/) -->

<svg
   xmlns:dc="http://purl.org/dc/elements/1.1/"
   xmlns:cc="http://creativecommons.org/ns#"
   xmlns:rdf="http://www.w3.org/1999/02/22-rdf-syntax-ns#"
   xmlns:svg="http://www.w3.org/2000/svg"
   xmlns="http://www.w3.org/2000/svg"
   xmlns:sodipodi="http://sodipodi.sourceforge.net/DTD/sodipodi-0.dtd"
   xmlns:inkscape="http://www.inkscape.org/namespaces/inkscape"
   width="16"
   height="16"
   id="svg3008"
   version="1.1"
   inkscape:version="0.48.4 r9939"
   sodipodi:docname="logo.svg">
  <defs
     id="defs3010" />
  <sodipodi:namedview
     id="base"
     pagecolor="#ffffff"
     bordercolor="#666666"
     borderopacity="1.0"
     inkscape:pageopacity="0.0"
     inkscape:pageshadow="2"
     inkscape:zoom="17.125242"
     inkscape:cx="23.125675"
     inkscape:cy="4.8103379"
     inkscape:current-layer="layer1"
     showgrid="true"
     inkscape:grid-bbox="true"
     inkscape:document-units="px"
     inkscape:window-width="1366"
     inkscape:window-height="680"
     inkscape:window-x="0"
     inkscape:window-y="31"
     inkscape:window-maximized="1"
     inkscape:snap-bbox="true">
    <inkscape:grid
       type="xygrid"
       id="grid3016"
       empspacing="8"
       visible="true"
       enabled="true"
       snapvisiblegridlinesonly="true" />
  </sodipodi:namedview>
  <metadata
     id="metadata3013">
    <rdf:RDF>
      <cc:Work
         rdf:about="">
        <dc:format>image/svg+xml</dc:format>
        <dc:type
           rdf:resource="http://purl.org/dc/dcmitype/StillImage" />
        <dc:title />
      </cc:Work>
    </rdf:RDF>
  </metadata>
  <g
     id="layer1"
     inkscape:label="Layer 1"
     inkscape:groupmode="layer"
     transform="translate(0,-16)">
    <path
       style="fill:#000000"
       d="M 4 0 C 1.7908611 -5.9193699e-08 5.9193649e-08 1.790859 0 4 L 0 12 C 5.9193649e-08 14.209149 1.7908611 16 4 16 L 4 14 C 2.8954305 14 2 13.104578 2 12 L 2 4 C 2 2.8954299 2.8954305 2 4 2 L 4 0 z M 12 0 L 12 2 C 13.104569 2 14 2.8954299 14 4 L 14 12 C 14 13.104578 13.104569 14 12 14 L 12 16 C 14.209139 16 16 14.209149 16 12 L 16 4 C 16 1.790859 14.209139 -5.9193699e-08 12 0 z M 6 8 L 6 12 L 8 12 C 8 13.104578 7.1045695 14 6 14 L 6 16 C 8.2091389 16 9.9999999 14.20916 10 12 L 10 8 L 6 8 z "
       transform="translate(0,16)"
       id="rect3030" />
  </g>
</svg>
